<svg width="58" height="51" viewBox="0 0 58 51" fill="none" xmlns="http://www.w3.org/2000/svg">
<path d="M9.625 8.6875H56.125L50.3125 31.8438H15.4375M50.3125 38.9688H17.375L7.6875 1.5625H1.875" stroke="black" stroke-width="2" stroke-linecap="round" stroke-linejoin="round"/>
<path d="M46.4375 49.6562C48.5776 49.6562 50.3125 48.0613 50.3125 46.0938C50.3125 44.1262 48.5776 42.5312 46.4375 42.5312C44.2974 42.5312 42.5625 44.1262 42.5625 46.0938C42.5625 48.0613 44.2974 49.6562 46.4375 49.6562Z" stroke="black" stroke-width="2" stroke-linecap="round" stroke-linejoin="round"/>
<path d="M21.25 49.6562C23.3901 49.6562 25.125 48.0613 25.125 46.0938C25.125 44.1262 23.3901 42.5312 21.25 42.5312C19.1099 42.5312 17.375 44.1262 17.375 46.0938C17.375 48.0613 19.1099 49.6562 21.25 49.6562Z" stroke="black" stroke-width="2" stroke-linecap="round" stroke-linejoin="round"/>
</svg>
