<svg width="32" height="33" viewBox="0 0 32 33" fill="none" xmlns="http://www.w3.org/2000/svg">
<path fill-rule="evenodd" clip-rule="evenodd" d="M1.40625 1.9063H13.5781C13.932 1.9063 14.2188 2.20009 14.2188 2.56255V15.0313C14.2188 15.3938 13.932 15.6875 13.5781 15.6875H1.40625C1.05242 15.6875 0.765625 15.3938 0.765625 15.0313V2.56255C0.765625 2.20009 1.05242 1.9063 1.40625 1.9063ZM24.0009 0.867248L31.2487 8.2919C31.4988 8.54816 31.4988 8.96365 31.2487 9.21996L24.0008 16.6446C23.7506 16.9008 23.3451 16.9008 23.0948 16.6446L15.847 9.21992C15.5969 8.96365 15.5969 8.54816 15.847 8.29186L23.0949 0.867248C23.3451 0.610982 23.7507 0.610982 24.0009 0.867248ZM1.40625 18.3125H13.5781C13.932 18.3125 14.2188 18.6063 14.2188 18.9688V31.4375C14.2188 31.8 13.932 32.0938 13.5781 32.0938H1.40625C1.05242 32.0938 0.765625 31.8 0.765625 31.4375V18.9688C0.765625 18.6063 1.05242 18.3125 1.40625 18.3125ZM17.4219 18.3125H29.5938C29.9476 18.3125 30.2344 18.6063 30.2344 18.9688V31.4375C30.2344 31.8 29.9476 32.0938 29.5938 32.0938H17.4219C17.0681 32.0938 16.7812 31.8 16.7812 31.4375V18.9688C16.7812 18.6063 17.0681 18.3125 17.4219 18.3125Z" fill="black"/>
</svg>
